# xmcd CD database file
# Copyright (C) 1993-1998 Ti Kan
#
# Track frame offsets:
#	150
#	20697
#	38664
#	56828
#	76128
#	96559
#	114086
#	136565
#	153271
#	180197
#
# Disc length: 2585 seconds
#
# Revision: 1
# Processed by: cddbd v1.4b41PL1 Copyright (c) Steve Scherf et al.
# Submitted via: CDValet v3.31 - Copyright (c) 1997 Greg Leichner
#
DISCID=6c0a170a
DTITLE=Stevi Lynn and Bordercrossing - Secure The Building
DYEAR=1900
DGENRE=
TTITLE0=dirty little secret
TTITLE1=tomorrow never comes
TTITLE2=lights out
TTITLE3=you are the reason
TTITLE4=the lounge
TTITLE5=wake it up
TTITLE6=heaven and hell
TTITLE7=won't be singin the blues
TTITLE8=i've got that feeling
TTITLE9=secure the building
EXTD=
EXTT0=
EXTT1=
EXTT2=
EXTT3=
EXTT4=
EXTT5=
EXTT6=
EXTT7=
EXTT8=
EXTT9=
PLAYORDER=
